<mxfile host="www.draw.io" modified="2019-12-01T22:49:51.267Z" agent="Mozilla/5.0 (Macintosh; Intel Mac OS X 10_15_1) AppleWebKit/537.36 (KHTML, like Gecko) Chrome/78.0.3904.108 Safari/537.36" etag="RF1Sv9uFLosdrZ7zrUXd" version="12.3.3" type="github" pages="1">
  <diagram id="Tg586LnQFS1tEYMSLTrV" name="Page-1">
    <mxGraphModel dx="1012" dy="457" grid="1" gridSize="10" guides="1" tooltips="1" connect="1" arrows="1" fold="1" page="1" pageScale="1" pageWidth="850" pageHeight="1100" math="0" shadow="0">
      <root>
        <mxCell id="0"/>
        <mxCell id="1" parent="0"/>
        <mxCell id="OuodS_jERPhckCzVtlXC-1" value="&lt;font face=&quot;Courier New&quot; style=&quot;font-size: 16px&quot;&gt;a:11&lt;/font&gt;" style="rounded=0;whiteSpace=wrap;html=1;" vertex="1" parent="1">
          <mxGeometry x="115" y="540" width="40" height="20" as="geometry"/>
        </mxCell>
        <mxCell id="OuodS_jERPhckCzVtlXC-3" value="&lt;font style=&quot;font-size: 19px&quot; face=&quot;Times New Roman&quot;&gt;2)&lt;/font&gt;" style="text;html=1;align=center;verticalAlign=middle;resizable=0;points=[];;autosize=1;" vertex="1" parent="1">
          <mxGeometry x="59" y="54" width="30" height="20" as="geometry"/>
        </mxCell>
        <mxCell id="OuodS_jERPhckCzVtlXC-4" value="&lt;font face=&quot;Courier New&quot; style=&quot;font-size: 17px&quot;&gt;a:11, b:40, c:5, d:16, e:18, f:10&lt;/font&gt;" style="text;html=1;align=center;verticalAlign=middle;resizable=0;points=[];;autosize=1;" vertex="1" parent="1">
          <mxGeometry x="125" y="54" width="350" height="20" as="geometry"/>
        </mxCell>
        <mxCell id="OuodS_jERPhckCzVtlXC-26" style="edgeStyle=none;rounded=0;orthogonalLoop=1;jettySize=auto;html=1;exitX=0.5;exitY=0;exitDx=0;exitDy=0;entryX=0.5;entryY=1;entryDx=0;entryDy=0;endArrow=none;endFill=0;" edge="1" parent="1" source="OuodS_jERPhckCzVtlXC-5" target="OuodS_jERPhckCzVtlXC-14">
          <mxGeometry relative="1" as="geometry"/>
        </mxCell>
        <mxCell id="OuodS_jERPhckCzVtlXC-5" value="&lt;font face=&quot;Courier New&quot; style=&quot;font-size: 16px&quot;&gt;b:40&lt;br&gt;&lt;/font&gt;" style="rounded=0;whiteSpace=wrap;html=1;" vertex="1" parent="1">
          <mxGeometry x="135" y="290" width="40" height="20" as="geometry"/>
        </mxCell>
        <mxCell id="OuodS_jERPhckCzVtlXC-6" value="&lt;font face=&quot;Courier New&quot; style=&quot;font-size: 16px&quot;&gt;c:5&lt;br&gt;&lt;/font&gt;" style="rounded=0;whiteSpace=wrap;html=1;" vertex="1" parent="1">
          <mxGeometry x="335" y="540" width="40" height="20" as="geometry"/>
        </mxCell>
        <mxCell id="OuodS_jERPhckCzVtlXC-7" value="&lt;font face=&quot;Courier New&quot; style=&quot;font-size: 16px&quot;&gt;f:10&lt;br&gt;&lt;/font&gt;" style="rounded=0;whiteSpace=wrap;html=1;" vertex="1" parent="1">
          <mxGeometry x="455" y="540" width="40" height="20" as="geometry"/>
        </mxCell>
        <mxCell id="OuodS_jERPhckCzVtlXC-21" style="edgeStyle=none;rounded=0;orthogonalLoop=1;jettySize=auto;html=1;exitX=0.5;exitY=1;exitDx=0;exitDy=0;entryX=0.5;entryY=0;entryDx=0;entryDy=0;endArrow=none;endFill=0;" edge="1" parent="1" source="OuodS_jERPhckCzVtlXC-8" target="OuodS_jERPhckCzVtlXC-6">
          <mxGeometry relative="1" as="geometry"/>
        </mxCell>
        <mxCell id="OuodS_jERPhckCzVtlXC-22" style="edgeStyle=none;rounded=0;orthogonalLoop=1;jettySize=auto;html=1;exitX=0.5;exitY=1;exitDx=0;exitDy=0;entryX=0.5;entryY=0;entryDx=0;entryDy=0;endArrow=none;endFill=0;" edge="1" parent="1" source="OuodS_jERPhckCzVtlXC-8" target="OuodS_jERPhckCzVtlXC-7">
          <mxGeometry relative="1" as="geometry"/>
        </mxCell>
        <mxCell id="OuodS_jERPhckCzVtlXC-8" value="&lt;font face=&quot;Times New Roman&quot; style=&quot;font-size: 17px&quot;&gt;15&lt;/font&gt;" style="ellipse;whiteSpace=wrap;html=1;aspect=fixed;" vertex="1" parent="1">
          <mxGeometry x="395" y="460" width="40" height="40" as="geometry"/>
        </mxCell>
        <mxCell id="OuodS_jERPhckCzVtlXC-18" style="edgeStyle=none;rounded=0;orthogonalLoop=1;jettySize=auto;html=1;exitX=0.5;exitY=0;exitDx=0;exitDy=0;entryX=0.5;entryY=1;entryDx=0;entryDy=0;endArrow=none;endFill=0;" edge="1" parent="1" source="OuodS_jERPhckCzVtlXC-9" target="OuodS_jERPhckCzVtlXC-13">
          <mxGeometry relative="1" as="geometry"/>
        </mxCell>
        <mxCell id="OuodS_jERPhckCzVtlXC-19" style="edgeStyle=none;rounded=0;orthogonalLoop=1;jettySize=auto;html=1;exitX=0.5;exitY=1;exitDx=0;exitDy=0;entryX=0.5;entryY=0;entryDx=0;entryDy=0;endArrow=none;endFill=0;" edge="1" parent="1" source="OuodS_jERPhckCzVtlXC-9" target="OuodS_jERPhckCzVtlXC-8">
          <mxGeometry relative="1" as="geometry"/>
        </mxCell>
        <mxCell id="OuodS_jERPhckCzVtlXC-20" style="edgeStyle=none;rounded=0;orthogonalLoop=1;jettySize=auto;html=1;exitX=0.5;exitY=1;exitDx=0;exitDy=0;entryX=0.5;entryY=0;entryDx=0;entryDy=0;endArrow=none;endFill=0;" edge="1" parent="1" source="OuodS_jERPhckCzVtlXC-9" target="OuodS_jERPhckCzVtlXC-1">
          <mxGeometry relative="1" as="geometry"/>
        </mxCell>
        <mxCell id="OuodS_jERPhckCzVtlXC-9" value="&lt;font face=&quot;Times New Roman&quot; style=&quot;font-size: 17px&quot;&gt;26&lt;/font&gt;" style="ellipse;whiteSpace=wrap;html=1;aspect=fixed;" vertex="1" parent="1">
          <mxGeometry x="235" y="360" width="40" height="40" as="geometry"/>
        </mxCell>
        <mxCell id="OuodS_jERPhckCzVtlXC-10" value="&lt;font face=&quot;Courier New&quot; style=&quot;font-size: 16px&quot;&gt;d:16&lt;br&gt;&lt;/font&gt;" style="rounded=0;whiteSpace=wrap;html=1;" vertex="1" parent="1">
          <mxGeometry x="575" y="470" width="40" height="20" as="geometry"/>
        </mxCell>
        <mxCell id="OuodS_jERPhckCzVtlXC-11" value="&lt;font face=&quot;Courier New&quot; style=&quot;font-size: 16px&quot;&gt;e:18&lt;br&gt;&lt;/font&gt;" style="rounded=0;whiteSpace=wrap;html=1;" vertex="1" parent="1">
          <mxGeometry x="695" y="470" width="40" height="20" as="geometry"/>
        </mxCell>
        <mxCell id="OuodS_jERPhckCzVtlXC-17" style="edgeStyle=none;rounded=0;orthogonalLoop=1;jettySize=auto;html=1;exitX=0.5;exitY=0;exitDx=0;exitDy=0;entryX=0.5;entryY=1;entryDx=0;entryDy=0;endArrow=none;endFill=0;" edge="1" parent="1" source="OuodS_jERPhckCzVtlXC-12" target="OuodS_jERPhckCzVtlXC-13">
          <mxGeometry relative="1" as="geometry"/>
        </mxCell>
        <mxCell id="OuodS_jERPhckCzVtlXC-23" style="edgeStyle=none;rounded=0;orthogonalLoop=1;jettySize=auto;html=1;exitX=0.5;exitY=1;exitDx=0;exitDy=0;entryX=0.5;entryY=0;entryDx=0;entryDy=0;endArrow=none;endFill=0;" edge="1" parent="1" source="OuodS_jERPhckCzVtlXC-12" target="OuodS_jERPhckCzVtlXC-10">
          <mxGeometry relative="1" as="geometry"/>
        </mxCell>
        <mxCell id="OuodS_jERPhckCzVtlXC-24" style="edgeStyle=none;rounded=0;orthogonalLoop=1;jettySize=auto;html=1;exitX=0.5;exitY=1;exitDx=0;exitDy=0;entryX=0.5;entryY=0;entryDx=0;entryDy=0;endArrow=none;endFill=0;" edge="1" parent="1" source="OuodS_jERPhckCzVtlXC-12" target="OuodS_jERPhckCzVtlXC-11">
          <mxGeometry relative="1" as="geometry"/>
        </mxCell>
        <mxCell id="OuodS_jERPhckCzVtlXC-12" value="&lt;font face=&quot;Times New Roman&quot; style=&quot;font-size: 17px&quot;&gt;34&lt;/font&gt;" style="ellipse;whiteSpace=wrap;html=1;aspect=fixed;" vertex="1" parent="1">
          <mxGeometry x="635" y="360" width="40" height="40" as="geometry"/>
        </mxCell>
        <mxCell id="OuodS_jERPhckCzVtlXC-25" style="edgeStyle=none;rounded=0;orthogonalLoop=1;jettySize=auto;html=1;exitX=0.5;exitY=0;exitDx=0;exitDy=0;entryX=0.5;entryY=1;entryDx=0;entryDy=0;endArrow=none;endFill=0;" edge="1" parent="1" source="OuodS_jERPhckCzVtlXC-13" target="OuodS_jERPhckCzVtlXC-14">
          <mxGeometry relative="1" as="geometry"/>
        </mxCell>
        <mxCell id="OuodS_jERPhckCzVtlXC-13" value="&lt;font face=&quot;Times New Roman&quot; style=&quot;font-size: 17px&quot;&gt;60&lt;/font&gt;" style="ellipse;whiteSpace=wrap;html=1;aspect=fixed;" vertex="1" parent="1">
          <mxGeometry x="435" y="280" width="40" height="40" as="geometry"/>
        </mxCell>
        <mxCell id="OuodS_jERPhckCzVtlXC-14" value="&lt;font face=&quot;Times New Roman&quot; style=&quot;font-size: 17px&quot;&gt;100&lt;/font&gt;" style="ellipse;whiteSpace=wrap;html=1;aspect=fixed;" vertex="1" parent="1">
          <mxGeometry x="275" y="160" width="40" height="40" as="geometry"/>
        </mxCell>
        <mxCell id="OuodS_jERPhckCzVtlXC-27" value="&lt;font style=&quot;font-size: 17px&quot; face=&quot;Times New Roman&quot;&gt;0&lt;/font&gt;" style="text;html=1;align=center;verticalAlign=middle;resizable=0;points=[];;autosize=1;" vertex="1" parent="1">
          <mxGeometry x="205" y="230" width="20" height="20" as="geometry"/>
        </mxCell>
        <mxCell id="OuodS_jERPhckCzVtlXC-28" value="&lt;font style=&quot;font-size: 17px&quot; face=&quot;Times New Roman&quot;&gt;0&lt;/font&gt;" style="text;html=1;align=center;verticalAlign=middle;resizable=0;points=[];;autosize=1;" vertex="1" parent="1">
          <mxGeometry x="335" y="320" width="20" height="20" as="geometry"/>
        </mxCell>
        <mxCell id="OuodS_jERPhckCzVtlXC-29" value="&lt;font style=&quot;font-size: 17px&quot; face=&quot;Times New Roman&quot;&gt;0&lt;/font&gt;" style="text;html=1;align=center;verticalAlign=middle;resizable=0;points=[];;autosize=1;" vertex="1" parent="1">
          <mxGeometry x="175" y="460" width="20" height="20" as="geometry"/>
        </mxCell>
        <mxCell id="OuodS_jERPhckCzVtlXC-30" value="&lt;font style=&quot;font-size: 17px&quot; face=&quot;Times New Roman&quot;&gt;0&lt;/font&gt;" style="text;html=1;align=center;verticalAlign=middle;resizable=0;points=[];;autosize=1;" vertex="1" parent="1">
          <mxGeometry x="365" y="500" width="20" height="20" as="geometry"/>
        </mxCell>
        <mxCell id="OuodS_jERPhckCzVtlXC-31" value="&lt;font style=&quot;font-size: 17px&quot; face=&quot;Times New Roman&quot;&gt;0&lt;/font&gt;" style="text;html=1;align=center;verticalAlign=middle;resizable=0;points=[];;autosize=1;" vertex="1" parent="1">
          <mxGeometry x="605" y="420" width="20" height="20" as="geometry"/>
        </mxCell>
        <mxCell id="OuodS_jERPhckCzVtlXC-32" value="&lt;font style=&quot;font-size: 17px&quot; face=&quot;Times New Roman&quot;&gt;1&lt;/font&gt;" style="text;html=1;align=center;verticalAlign=middle;resizable=0;points=[];;autosize=1;" vertex="1" parent="1">
          <mxGeometry x="375" y="220" width="20" height="20" as="geometry"/>
        </mxCell>
        <mxCell id="OuodS_jERPhckCzVtlXC-33" value="&lt;font style=&quot;font-size: 17px&quot; face=&quot;Times New Roman&quot;&gt;1&lt;/font&gt;" style="text;html=1;align=center;verticalAlign=middle;resizable=0;points=[];;autosize=1;" vertex="1" parent="1">
          <mxGeometry x="555" y="320" width="20" height="20" as="geometry"/>
        </mxCell>
        <mxCell id="OuodS_jERPhckCzVtlXC-35" value="&lt;font style=&quot;font-size: 17px&quot; face=&quot;Times New Roman&quot;&gt;1&lt;/font&gt;" style="text;html=1;align=center;verticalAlign=middle;resizable=0;points=[];;autosize=1;" vertex="1" parent="1">
          <mxGeometry x="695" y="420" width="20" height="20" as="geometry"/>
        </mxCell>
        <mxCell id="OuodS_jERPhckCzVtlXC-36" value="&lt;font style=&quot;font-size: 17px&quot; face=&quot;Times New Roman&quot;&gt;1&lt;/font&gt;" style="text;html=1;align=center;verticalAlign=middle;resizable=0;points=[];;autosize=1;" vertex="1" parent="1">
          <mxGeometry x="325" y="410" width="20" height="20" as="geometry"/>
        </mxCell>
        <mxCell id="OuodS_jERPhckCzVtlXC-37" value="&lt;font style=&quot;font-size: 17px&quot; face=&quot;Times New Roman&quot;&gt;1&lt;/font&gt;" style="text;html=1;align=center;verticalAlign=middle;resizable=0;points=[];;autosize=1;" vertex="1" parent="1">
          <mxGeometry x="445" y="500" width="20" height="20" as="geometry"/>
        </mxCell>
      </root>
    </mxGraphModel>
  </diagram>
</mxfile>
